<?xml version="1.0" encoding="UTF-8" standalone="no"?>
<!DOCTYPE svg PUBLIC "-//W3C//DTD SVG 1.1//EN" "http://www.w3.org/Graphics/SVG/1.1/DTD/svg11.dtd">
<svg width="100%" height="100%" viewBox="0 0 1030 792" version="1.1" xmlns="http://www.w3.org/2000/svg" xmlns:xlink="http://www.w3.org/1999/xlink" xml:space="preserve" xmlns:serif="http://www.serif.com/" style="fill-rule:evenodd;clip-rule:evenodd;stroke-linejoin:round;stroke-miterlimit:2;">
    <g transform="matrix(1,0,0,1,-234.119,-57.0777)">
        <g transform="matrix(1.18966,0,0,1.103,-133.254,-62.4017)">
            <circle cx="667.538" cy="467.055" r="358.733" style="fill:rgb(255,214,214);"/>
        </g>
        <g transform="matrix(1,0,0,1,200,5e-06)">
            <path d="M883.774,664.286L530.184,664.286L530.184,456.8L528.559,455.755L585.954,399.853C614.955,371.507 653.851,355.488 694.403,355.189L799.913,354.225L800.064,354.405L884.019,454.283L883.772,457.048L883.774,664.286Z" style="fill:rgb(242,242,242);fill-rule:nonzero;"/>
        </g>
        <g transform="matrix(1,0,0,1,336.087,234.734)">
            <rect x="460.692" y="158.642" width="211.472" height="2" style="fill:white;"/>
        </g>
        <g transform="matrix(1,0,0,1,336.087,234.734)">
            <rect x="439.692" y="179.642" width="211.472" height="2" style="fill:white;"/>
        </g>
        <g transform="matrix(1,0,0,1,336.087,234.734)">
            <rect x="690.184" y="122.855" width="34.47" height="119.3" style="fill:rgb(242,242,242);"/>
        </g>
        <g transform="matrix(1,0,0,1,200,5e-06)">
            <path d="M883.774,664.285L694.549,664.285L694.549,526.786C694.56,494.999 705.899,464.232 726.519,440.041L799.768,354.165L883.774,454.171L883.774,664.285Z" style="fill:rgb(230,230,230);fill-rule:nonzero;"/>
        </g>
        <g id="a6590c42-447c-4063-b06f-22960ea9e1c6" transform="matrix(1,0,0,1,336.087,234.734)">
            <rect x="647.299" y="326.147" width="38.44" height="33.977" style="fill:white;"/>
        </g>
        <g id="a578d772-16a5-40c1-af18-cd3a687ecce1" transform="matrix(1,0,0,1,336.087,234.734)">
            <rect x="647.299" y="267.337" width="38.44" height="33.438" style="fill:white;"/>
        </g>
        <g id="ed02d0f4-f24a-4a19-b524-9521b83f0535" transform="matrix(1,0,0,1,336.087,234.734)">
            <rect x="463.685" y="317.131" width="38.44" height="33.977" style="fill:white;"/>
        </g>
        <g id="b847f630-38c4-41e6-9edb-729b8a62aeb5" transform="matrix(1,0,0,1,336.087,234.734)">
            <rect x="463.685" y="258.322" width="38.44" height="33.438" style="fill:white;"/>
        </g>
        <g transform="matrix(1,0,0,1,336.087,234.734)">
            <rect x="407.134" y="57.405" width="41.83" height="144.8" style="fill:rgb(242,242,242);"/>
        </g>
        <g transform="matrix(1,0,0,1,200,5e-06)">
            <path d="M612.902,664.284L183.948,664.284L183.948,412.504L182.04,411.276L182.491,410.838L260.84,334.523C290.104,305.918 329.353,289.752 370.274,289.451L511.168,288.164L511.32,288.344L613.192,409.535L612.9,412.847L612.902,664.284Z" style="fill:rgb(242,242,242);fill-rule:nonzero;"/>
        </g>
        <g transform="matrix(1,0,0,1,200,5e-06)">
            <path d="M612.902,664.284L383.444,664.284L383.444,479.407C383.452,452.527 393.04,426.51 410.478,406.054L511.046,288.149L612.902,409.402L612.902,664.284Z" style="fill:rgb(230,230,230);fill-rule:nonzero;"/>
        </g>
        <g id="ea84a9e5-6c52-4e5e-8073-8fad2571a91f" transform="matrix(1,0,0,1,336.087,234.734)">
            <rect x="363.966" y="304.151" width="37.105" height="32.797" style="fill:white;"/>
        </g>
        <g id="f19b6ec7-0e8c-4fff-907a-924d40e6f96c" transform="matrix(1,0,0,1,336.087,234.734)">
            <rect x="363.966" y="247.151" width="37.105" height="32.797" style="fill:white;"/>
        </g>
        <g id="acaff666-bc25-4fb5-a952-92ce00b7aba4" transform="matrix(1,0,0,1,336.087,234.734)">
            <rect x="132.217" y="293.207" width="46.657" height="41.239" style="fill:white;"/>
        </g>
        <g id="b161f5b0-b707-4bd0-97aa-6c4dd340fe66" transform="matrix(1,0,0,1,336.087,234.734)">
            <rect x="132.217" y="221.827" width="46.657" height="40.585" style="fill:white;"/>
        </g>
        <g id="bed8a224-40da-4f11-a19c-2b4f6eae74c1" transform="matrix(1,0,0,1,336.087,234.734)">
            <rect x="0" y="428.03" width="927.825" height="2.285" style="fill:rgb(63,61,86);"/>
        </g>
        <g id="eaa25ba1-fb02-4ae1-bc1b-a61530bf454c" transform="matrix(1,0,0,1,336.087,234.734)">
            <ellipse cx="139.265" cy="318.161" rx="33.252" ry="67.848" style="fill:rgb(63,61,86);"/>
        </g>
        <g id="b4bf8935-d3ff-4e35-bb4f-d79f2288d23a-673" transform="matrix(1,0,0,1,200,5e-06)">
            <path d="M278.424,663.952C265.106,584.052 278.289,504.432 278.424,503.638L281.015,504.077C280.881,504.867 267.773,584.065 281.015,663.521L278.424,663.952Z" style="fill:rgb(237,111,121);fill-rule:nonzero;"/>
        </g>
        <g id="b9f9a211-6e99-401f-90e8-cf0ebb439f20" transform="matrix(0.881781,-0.471658,0.471658,0.881781,-23.9265,201.605)">
            <rect x="273.16" y="546.19" width="34.1" height="2.628" style="fill:rgb(237,111,121);"/>
        </g>
        <g id="e0f316f7-4b6f-4546-8015-4a3c859d357e" transform="matrix(0.471905,-0.88165,0.88165,0.471905,-153.314,521.276)">
            <rect x="257.161" y="538.514" width="2.628" height="34.101" style="fill:rgb(237,111,121);"/>
        </g>
        <g id="f9fb50b4-1b5d-416e-9e0d-266f30cba72e" transform="matrix(1,0,0,1,336.087,234.734)">
            <ellipse cx="58.747" cy="270.411" rx="47.988" ry="97.915" style="fill:rgb(237,111,121);"/>
        </g>
        <g id="a800d1c2-f743-4d93-bec2-cff0f953733c-674" transform="matrix(1,0,0,1,200,5e-06)">
            <path d="M200.179,665.266C180.985,550.104 199.985,435.361 200.179,434.215L202.09,434.539C201.896,435.682 182.952,550.116 202.09,664.948L200.179,665.266Z" style="fill:rgb(63,61,86);fill-rule:nonzero;"/>
        </g>
        <g id="fb01bfd3-0095-4a66-b946-3896d80fc39c" transform="matrix(0.881781,-0.471658,0.471658,0.881781,-9.01859,160.807)">
            <rect x="191.672" y="496.396" width="49.213" height="1.939" style="fill:rgb(63,61,86);"/>
        </g>
        <g id="b67993a5-f0ea-4993-bd83-fcb2f25516f5" transform="matrix(0.471905,-0.88165,0.88165,0.471905,-158.735,419.105)">
            <rect x="169.509" y="484.398" width="1.939" height="49.213" style="fill:rgb(63,61,86);"/>
        </g>
        <g id="a58bbeb0-9bd3-48cd-81c7-bf267a60ca0e-675" transform="matrix(1,0,0,1,200,5e-06)">
            <path d="M797.91,308.067L808.429,299.653C800.257,298.753 796.899,303.208 795.529,306.736C789.145,304.085 782.194,307.559 782.194,307.559L803.241,315.2C802.179,312.364 800.33,309.889 797.913,308.066L797.91,308.067Z" style="fill:rgb(63,61,86);fill-rule:nonzero;"/>
        </g>
        <g id="f9b938cf-521f-4b64-a4af-443f90f250ff-676" transform="matrix(1,0,0,1,200,5e-06)">
            <path d="M607.814,243.266L618.333,234.852C610.161,233.952 606.803,238.407 605.433,241.935C599.049,239.284 592.098,242.758 592.098,242.758L613.145,250.399C612.083,247.563 610.233,245.088 607.814,243.266Z" style="fill:rgb(63,61,86);fill-rule:nonzero;"/>
        </g>
        <g id="a8da215e-7841-4236-9b2d-2b5040889003-677" transform="matrix(1,0,0,1,200,5e-06)">
            <path d="M872.576,258.932L883.095,250.518C874.923,249.618 871.565,254.073 870.195,257.601C863.811,254.95 856.86,258.424 856.86,258.424L877.907,266.065C876.845,263.229 874.996,260.754 872.579,258.931L872.576,258.932Z" style="fill:rgb(63,61,86);fill-rule:nonzero;"/>
        </g>
        <g id="f0e6e0e6-42da-4f68-a4c7-39fa16634762-678" transform="matrix(1,0,0,1,200,5e-06)">
            <path d="M425.411,649.546C422.615,649.546 419.866,650.283 417.445,651.684C414.299,648.84 410.206,647.264 405.965,647.264C396.574,647.264 388.845,654.992 388.845,664.384C388.845,664.39 388.845,664.396 388.845,664.402L441.352,664.402C440.762,656.081 433.754,649.55 425.412,649.547L425.411,649.546Z" style="fill:rgb(63,61,86);fill-rule:nonzero;"/>
        </g>
        <g id="a1a48b26-c08c-4af6-a63a-aec9264485a6-679" transform="matrix(1,0,0,1,200,5e-06)">
            <path d="M698.52,649.546C695.723,649.546 692.975,650.283 690.554,651.684C687.407,648.84 683.314,647.264 679.074,647.264C669.682,647.264 661.954,654.992 661.954,664.384C661.954,664.39 661.954,664.396 661.954,664.402L714.461,664.402C713.87,656.081 706.861,649.549 698.52,649.546Z" style="fill:rgb(63,61,86);fill-rule:nonzero;"/>
        </g>
        <g transform="matrix(1,0,0,1,336.087,234.734)">
            <g id="a2b702d6-67ae-4451-8add-a2f537c8659d-680" transform="matrix(1,0,0,1,-136.087,-234.734)">
                <path d="M563.99,638.084L489.404,638.084L489.404,640.49L501.036,640.49L501.036,663.347L503.442,663.347L503.442,640.49L548.748,640.49L548.748,663.347L551.154,663.347L551.154,640.49L563.989,640.49L563.99,638.084Z" style="fill:rgb(63,61,86);fill-rule:nonzero;"/>
            </g>
        </g>
        <g transform="matrix(1,0,0,1,336.087,234.734)">
            <rect id="e92a1475-8072-45d0-b33d-944691a78c33" x="353.463" y="396.151" width="74.586" height="2.406" style="fill:rgb(63,61,86);"/>
        </g>
        <g transform="matrix(1,0,0,1,336.087,234.734)">
            <rect id="b6a0a497-0aca-42fa-836e-077aa391619e" x="353.463" y="390.136" width="74.586" height="2.406" style="fill:rgb(63,61,86);"/>
        </g>
        <g id="fb6c0aeb-9c49-4f71-adc3-f096e0d8dfbf" transform="matrix(1,0,0,1,336.087,234.734)">
            <ellipse cx="873.818" cy="333.374" rx="29.118" ry="59.413" style="fill:rgb(230,230,230);"/>
        </g>
        <g id="b1a6d698-dda0-490a-ac80-38ce87516ad9-681" transform="matrix(1,0,0,1,200,5e-06)">
            <path d="M1006.66,665.266C1018.31,595.388 1006.78,525.766 1006.66,525.066L1005.5,525.266C1005.62,525.959 1017.12,595.396 1005.5,665.074L1006.66,665.266Z" style="fill:rgb(63,61,86);fill-rule:nonzero;"/>
        </g>
        <g id="ec111ffd-238a-4858-990a-57023cafb3d8" transform="matrix(0.471833,-0.881688,0.881688,0.471833,229.797,1176.51)">
            <rect x="996.302" y="548.447" width="1.177" height="29.872" style="fill:rgb(63,61,86);"/>
        </g>
        <g id="e635c501-1628-42d4-a3a5-c4826c51f25c" transform="matrix(0.881688,-0.471833,0.471833,0.881688,52.0766,550.973)">
            <rect x="1009.75" y="569.86" width="29.872" height="1.177" style="fill:rgb(63,61,86);"/>
        </g>
        <g transform="matrix(1,0,0,1,336.087,234.734)">
            <g id="e1ce62fd-b420-4db2-ab4c-e67ce8dd22d3-682" transform="matrix(1,0,0,1,-136.087,-234.734)">
                <path d="M974.804,639.347C974.267,639.602 973.636,639.57 973.127,639.262C972.999,639.184 972.895,639.392 973.027,639.47C973.59,639.808 974.286,639.846 974.882,639.57C974.941,639.548 974.974,639.483 974.956,639.423C974.942,639.374 974.896,639.34 974.845,639.34C974.833,639.34 974.822,639.341 974.811,639.345L974.804,639.347Z" style="fill:white;fill-rule:nonzero;"/>
            </g>
        </g>
        <g transform="matrix(1,0,0,1,336.087,234.734)">
            <g id="fb654e67-0d02-4c8d-bcee-f27f565fe02d-683" transform="matrix(1,0,0,1,-136.087,-234.734)">
                <path d="M938.012,617.311C938.859,616.829 939.384,615.926 939.384,614.951C939.384,614.317 939.162,613.703 938.758,613.216L941.914,588.694L936.014,588.942L934.769,612.968C934.226,613.483 933.918,614.199 933.918,614.947C933.918,616.445 935.15,617.676 936.647,617.676C937.126,617.676 937.597,617.55 938.012,617.311L938.012,617.311Z" style="fill:rgb(255,182,182);fill-rule:nonzero;"/>
            </g>
        </g>
        <g transform="matrix(1,0,0,1,336.087,234.734)">
            <g id="a488bb03-142b-4649-b46b-ce040c2328f3-684" transform="matrix(1,0,0,1,-136.087,-234.734)">
                <path d="M965.46,588.691L966.218,601.229L961.101,614.743L958.656,611.128L960.986,597.981L960.34,589.57L965.46,588.691Z" style="fill:rgb(255,182,182);fill-rule:nonzero;"/>
            </g>
        </g>
        <g transform="matrix(1,0,0,1,336.087,234.734)">
            <g id="f0ef5070-4018-49e8-960c-7187773c9309-685" transform="matrix(1,0,0,1,-136.087,-234.734)">
                <path d="M958.133,627.349L958.761,659.579L956.006,660.006L950.051,627.019L958.133,627.349Z" style="fill:rgb(255,182,182);fill-rule:nonzero;"/>
            </g>
        </g>
        <g transform="matrix(1,0,0,1,336.087,234.734)">
            <g id="fb7c6aba-de42-4943-8375-93a8e608f158-686" transform="matrix(1,0,0,1,-136.087,-234.734)">
                <path d="M940.265,628.907L944.577,660.853L947.365,660.853L948.201,627.343L940.265,628.907Z" style="fill:rgb(255,182,182);fill-rule:nonzero;"/>
            </g>
        </g>
        <g transform="matrix(1,0,0,1,336.087,234.734)">
            <circle id="b6f1e84f-de40-4eb0-b986-5230eeabe2b6" cx="812.292" cy="331.834" r="5.733" style="fill:rgb(255,182,182);"/>
        </g>
        <g transform="matrix(1,0,0,1,336.087,234.734)">
            <g id="f5873d16-c2b8-4b32-b8ce-4dfe24df8d00-687" transform="matrix(1,0,0,1,-136.087,-234.734)">
                <path d="M958.835,609.371L961.241,614.996L958.835,622.565L958.835,630.399L949.622,630.454L949.422,620.82L948.182,630.454L938.801,630.454L937.065,611.144L939.556,606.574L958.835,609.371Z" style="fill:rgb(47,46,65);fill-rule:nonzero;"/>
            </g>
        </g>
        <g transform="matrix(1,0,0,1,336.087,234.734)">
            <g id="b50d2378-3b60-4f71-817b-0ffe618fac58-688" transform="matrix(1,0,0,1,-136.087,-234.734)">
                <path d="M946.538,574.179L945.86,575.435C945.86,575.435 940.014,576.574 937.06,579.792L941.025,587.892L937.353,611.337L959.001,609.894L959.769,591.843L963.027,579.218C963.027,579.218 957.38,575.345 954.943,575.752L954.09,574.184L946.538,574.179Z" style="fill:rgb(237,111,121);fill-rule:nonzero;"/>
            </g>
        </g>
        <g transform="matrix(1,0,0,1,336.087,234.734)">
            <g id="b1c08a75-8ec9-4886-9316-db9a3786fe59-689" transform="matrix(1,0,0,1,-136.087,-234.734)">
                <path d="M942.622,580.636L937.058,579.793C937.058,579.793 935.535,588.728 935.547,590.768L942.263,591.839L942.622,580.636Z" style="fill:rgb(237,111,121);fill-rule:nonzero;"/>
            </g>
        </g>
        <g transform="matrix(1,0,0,1,336.087,234.734)">
            <g id="b7e6bad9-42bd-4009-bf9c-01fa534afc33-690" transform="matrix(1,0,0,1,-136.087,-234.734)">
                <path d="M960.368,579.782L963.027,579.212C963.027,579.212 964.053,582.467 965.745,590.133L958.833,592.545L960.368,579.782Z" style="fill:rgb(237,111,121);fill-rule:nonzero;"/>
            </g>
        </g>
        <g transform="matrix(1,0,0,1,336.087,234.734)">
            <g id="e547f758-b125-48f0-a3f2-c593124eae11-691" transform="matrix(1,0,0,1,-136.087,-234.734)">
                <path d="M947.908,662.949L937.895,662.949L937.895,662.822C937.895,660.682 939.655,658.922 941.795,658.922L947.908,658.922L947.908,662.949Z" style="fill:rgb(47,46,65);fill-rule:nonzero;"/>
            </g>
        </g>
        <g transform="matrix(1,0,0,1,336.087,234.734)">
            <g id="a5abfdf4-c3af-402b-ba0c-8bb282f8d7b3-692" transform="matrix(1,0,0,1,-136.087,-234.734)">
                <path d="M959.972,661.417L950.078,662.949L950.059,662.824C949.734,660.712 951.203,658.705 953.314,658.377L959.357,657.441L959.972,661.417Z" style="fill:rgb(47,46,65);fill-rule:nonzero;"/>
            </g>
        </g>
        <g transform="matrix(1,0,0,1,336.087,234.734)">
            <g id="bd2c52c0-fba3-4836-9bfb-70573bfe7e73-693" transform="matrix(1,0,0,1,-136.087,-234.734)">
                <path d="M950.627,568.899C950.189,568.744 949.738,568.626 949.279,568.548C947.723,568.191 946.693,566.673 946.936,565.095C947,564.912 947.028,564.719 947.02,564.526C946.96,564.1 946.461,563.826 945.983,563.726C945.498,563.676 945.015,563.596 944.539,563.486C943.867,563.247 943.376,562.658 943.263,561.954C943.193,561.281 943.364,560.604 943.747,560.046L943.92,560.48C944.177,560.294 944.373,560.038 944.484,559.742C944.865,559.787 945.198,560.021 945.37,560.364C945.647,560.507 945.687,559.92 945.994,559.834C946.127,559.819 946.262,559.847 946.376,559.916C947.039,560.078 947.734,560.043 948.376,559.816C949.527,559.577 950.715,559.577 951.865,559.816C952.622,559.941 953.332,560.26 953.927,560.743C954.344,561.153 954.671,561.645 954.888,562.188C955.526,563.437 955.796,564.842 955.666,566.239C955.491,567.391 954.948,568.457 954.119,569.277C953.677,569.722 952.236,571.277 951.446,571.008C950.454,570.674 951.797,569.439 950.627,568.899Z" style="fill:rgb(47,46,65);fill-rule:nonzero;"/>
            </g>
        </g>
        <g transform="matrix(1,0,0,1,336.087,234.734)">
            <g id="fc5ed3c1-c68d-40d2-b7a6-abe3b4a2a74d-694" transform="matrix(1,0,0,1,-136.087,-234.734)">
                <path d="M877.494,615.079C878.08,614.726 878.44,614.089 878.44,613.404C878.44,612.932 878.269,612.476 877.959,612.12L880.498,586.644L876.259,586.925L875.085,612.011C874.714,612.379 874.505,612.881 874.505,613.404C874.505,614.481 875.392,615.368 876.469,615.368C876.831,615.368 877.186,615.268 877.495,615.079L877.494,615.079Z" style="fill:rgb(254,184,184);fill-rule:nonzero;"/>
            </g>
        </g>
        <g transform="matrix(1,0,0,1,336.087,234.734)">
            <g id="a008d3da-b54e-4923-9038-9867749ffee1-695" transform="matrix(1,0,0,1,-136.087,-234.734)">
                <path d="M874.54,585.698L875.651,594.145L875.497,599.322L880.16,599.749L881.094,595.443L881.609,584.043C881.691,582.268 880.368,580.714 878.603,580.51C876.77,580.296 875.08,581.612 874.838,583.443L874.54,585.698Z" style="fill:rgb(47,46,65);fill-rule:nonzero;"/>
            </g>
        </g>
        <g transform="matrix(1,0,0,1,336.087,234.734)">
            <g id="ebb1e42f-8de7-4654-9747-025b9834ff06-696" transform="matrix(1,0,0,1,-136.087,-234.734)">
                <path d="M892.396,660.022L895.221,660.022L896.566,649.113L892.392,649.113L892.396,660.022Z" style="fill:rgb(254,184,184);fill-rule:nonzero;"/>
            </g>
        </g>
        <g transform="matrix(1,0,0,1,336.087,234.734)">
            <g id="a35d91d7-34c0-4dd3-9e8f-4f1bbf8a8f5c-697" transform="matrix(1,0,0,1,-136.087,-234.734)">
                <path d="M891.675,662.765L900.795,662.765L900.795,662.65C900.795,660.703 899.194,659.1 897.246,659.1L891.676,659.1L891.675,662.765Z" style="fill:rgb(47,46,65);fill-rule:nonzero;"/>
            </g>
        </g>
        <g transform="matrix(1,0,0,1,336.087,234.734)">
            <g id="a1f78e26-4946-4012-8d05-fc85d50d3a11-698" transform="matrix(1,0,0,1,-136.087,-234.734)">
                <path d="M869.042,660.022L871.87,660.022L873.216,649.113L869.042,649.113L869.042,660.022Z" style="fill:rgb(254,184,184);fill-rule:nonzero;"/>
            </g>
        </g>
        <g transform="matrix(1,0,0,1,336.087,234.734)">
            <g id="e8271c9c-db88-4a38-868d-596fdbbe0842-699" transform="matrix(1,0,0,1,-136.087,-234.734)">
                <path d="M868.321,662.765L877.441,662.765L877.441,662.65C877.441,660.703 875.839,659.1 873.892,659.1L868.322,659.1L868.321,662.765Z" style="fill:rgb(47,46,65);fill-rule:nonzero;"/>
            </g>
        </g>
        <g transform="matrix(1,0,0,1,336.087,234.734)">
            <circle id="b88cef57-831c-4e73-93ef-4ce4c84855e9" cx="743.953" cy="335.63" r="6.132" style="fill:rgb(254,184,184);"/>
        </g>
        <g transform="matrix(1,0,0,1,336.087,234.734)">
            <g id="ba66fbbf-93e8-4cf1-ad4a-d3a9d01d0c08-700" transform="matrix(1,0,0,1,-136.087,-234.734)">
                <path d="M880.833,578.985L876.579,579.471C874.481,582.445 873.941,586.256 875.13,589.696L878.342,598.985C878.342,598.985 873.885,607.921 873.885,616.217C873.885,624.513 865.396,654.127 865.396,654.127L877.344,655.373L882.559,623.826L889.743,655.246L897.944,653.911L893.426,612.711L890.441,599.152L890.315,592.549C890.315,592.549 891.584,587.587 888.408,584.411L884.53,579.011L880.833,578.985Z" style="fill:rgb(47,46,65);fill-rule:nonzero;"/>
            </g>
        </g>
        <g transform="matrix(1,0,0,1,336.087,234.734)">
            <g id="adc0a8ff-b80e-404d-9cbd-0bdc38dcadd7-701" transform="matrix(1,0,0,1,-136.087,-234.734)">
                <path d="M887.188,568.174L878.174,568.174L878.174,564.246C880.152,563.46 882.087,562.792 883.257,564.246C885.412,564.246 887.185,566.019 887.185,568.174L887.188,568.174Z" style="fill:rgb(47,46,65);fill-rule:nonzero;"/>
            </g>
        </g>
        <g transform="matrix(1,0,0,1,336.087,234.734)">
            <g id="a9ea9b79-794e-43c8-9184-cfa6df2e5b1c-702" transform="matrix(1,0,0,1,-136.087,-234.734)">
                <path d="M877.684,563.553C872.297,563.553 870.789,570.305 870.789,574.114C870.789,576.238 871.75,576.998 873.259,577.255L873.792,574.412L875.041,577.378C875.465,577.378 875.911,577.372 876.372,577.363L876.795,576.491L877.739,577.347C881.52,577.353 884.577,577.904 884.577,574.114C884.574,570.306 883.252,563.553 877.684,563.553Z" style="fill:rgb(47,46,65);fill-rule:nonzero;"/>
            </g>
        </g>
        <g transform="matrix(1,0,0,1,336.087,234.734)">
            <g id="af0349f9-456a-4dd2-a64e-6531d0c151a5-703" transform="matrix(1,0,0,1,-136.087,-234.734)">
                <path d="M885.646,600.848L885.874,590.957L886.474,586.566L887.968,590.916L885.646,600.848Z" style="fill-opacity:0.2;fill-rule:nonzero;"/>
            </g>
        </g>
        <g transform="matrix(1,0,0,1,336.087,234.734)">
            <g transform="matrix(1,0,0,1,-136.087,-234.734)">
                <path d="M875.313,599.029L875.312,599.029C872.358,599.021 869.931,596.591 869.927,593.638L869.927,583.515C869.934,580.564 872.36,578.137 875.312,578.129C879.299,578.133 882.578,581.413 882.583,585.4L882.583,591.758C882.578,595.745 879.299,599.024 875.313,599.029Z" style="fill:rgb(237,111,121);fill-rule:nonzero;"/>
            </g>
        </g>
        <g transform="matrix(1,0,0,1,336.087,234.734)">
            <g id="f944ffa0-7c6b-4400-915a-69234f51563c-704" transform="matrix(1,0,0,1,-136.087,-234.734)">
                <path d="M887.311,591.911C888.663,590.196 889.376,588.063 889.329,585.881C889.329,581.491 886.714,577.92 883.5,577.92C881.622,578.014 879.926,579.09 879.04,580.749L879.524,581.049C880.309,579.56 881.82,578.587 883.5,578.49C886.4,578.49 888.76,581.806 888.76,585.883C888.808,587.931 888.142,589.933 886.877,591.545L887.311,591.911Z" style="fill:rgb(237,111,121);fill-rule:nonzero;"/>
            </g>
        </g>
        <g transform="matrix(1,0,0,1,336.087,234.734)">
            <g id="ec3de1bf-746d-4468-9eef-f7ee611e3754-705" transform="matrix(1,0,0,1,-136.087,-234.734)">
                <path d="M884.548,616.107C885.135,615.709 885.488,615.044 885.488,614.335C885.488,613.777 885.27,613.241 884.881,612.842L886.144,584.818L881.523,585.378L881.729,612.894C881.374,613.289 881.177,613.802 881.177,614.334C881.177,615.515 882.148,616.486 883.329,616.486C883.764,616.486 884.19,616.354 884.548,616.107Z" style="fill:rgb(254,184,184);fill-rule:nonzero;"/>
            </g>
        </g>
        <g transform="matrix(1,0,0,1,336.087,234.734)">
            <g id="f5efdb27-b8cb-453b-a7a0-ebd86690dd4e-706" transform="matrix(1,0,0,1,-136.087,-234.734)">
                <path d="M879.571,584.14L881.289,593.316L881.428,598.989L886.554,599.179L887.32,594.413L887.206,581.913C887.188,579.967 885.648,578.345 883.706,578.227C881.687,578.102 879.916,579.643 879.761,581.66L879.571,584.14Z" style="fill:rgb(47,46,65);fill-rule:nonzero;"/>
            </g>
        </g>
        <g transform="matrix(1,0,0,1,336.087,234.734)">
            <g id="a893f891-f54b-45a9-863c-d8f504ba27e5-707" transform="matrix(1,0,0,1,-136.087,-234.734)">
                <path d="M837.097,638.084L762.511,638.084L762.511,640.49L774.142,640.49L774.142,663.347L776.548,663.347L776.548,640.49L821.854,640.49L821.854,663.347L824.26,663.347L824.26,640.49L837.095,640.49L837.097,638.084Z" style="fill:rgb(63,61,86);fill-rule:nonzero;"/>
            </g>
        </g>
        <g transform="matrix(1,0,0,1,336.087,234.734)">
            <rect id="acd566dc-6da0-4893-9936-737f20e2ae79" x="626.57" y="396.151" width="74.586" height="2.406" style="fill:rgb(63,61,86);"/>
        </g>
        <g transform="matrix(1,0,0,1,336.087,234.734)">
            <rect id="a718245b-7267-423b-9db7-7deabc7ded2f" x="626.57" y="390.136" width="74.586" height="2.406" style="fill:rgb(63,61,86);"/>
        </g>
        <g id="f99f95d7-6e4c-45e5-9ca3-115f1183054f" transform="matrix(1,0,0,1,336.087,234.734)">
            <circle cx="416.155" cy="371.232" r="5.318" style="fill:rgb(160,97,106);"/>
        </g>
        <g transform="matrix(1,0,0,1,336.087,234.734)">
            <g id="f6aff86a-449a-4efa-96e1-5e9aeb63600f-708" transform="matrix(1,0,0,1,-136.087,-234.734)">
                <path d="M562.779,660.124L565.501,660.124L566.801,649.624L562.779,649.624L562.779,660.124Z" style="fill:rgb(160,97,106);fill-rule:nonzero;"/>
            </g>
        </g>
        <g transform="matrix(1,0,0,1,336.087,234.734)">
            <g id="be6cb877-ace5-48c6-bd02-c8097b1472ff-709" transform="matrix(1,0,0,1,-136.087,-234.734)">
                <path d="M562.085,659.236L567.446,659.236C569.321,659.236 570.863,660.778 570.863,662.652L570.863,662.763L562.085,662.763L562.085,659.236Z" style="fill:rgb(47,46,65);fill-rule:nonzero;"/>
            </g>
        </g>
        <g transform="matrix(1,0,0,1,336.087,234.734)">
            <g id="f72c38d0-548e-4cbc-be70-00a274c38ac9-710" transform="matrix(1,0,0,1,-136.087,-234.734)">
                <path d="M552.244,654.543L550.038,656.143L542.838,648.395L546.093,646.04L552.244,654.543Z" style="fill:rgb(160,97,106);fill-rule:nonzero;"/>
            </g>
        </g>
        <g transform="matrix(1,0,0,1,336.087,234.734)">
            <g id="f50cadf5-a7b6-4eb1-a003-daa0c7a8710f-711" transform="matrix(1,0,0,1,-136.087,-234.734)">
                <path d="M554.352,656.28L547.24,661.426L547.175,661.336C546.076,659.817 546.421,657.664 547.94,656.565L552.284,653.422L554.352,656.28Z" style="fill:rgb(47,46,65);fill-rule:nonzero;"/>
            </g>
        </g>
        <g transform="matrix(1,0,0,1,336.087,234.734)">
            <g id="be113f8e-4433-4984-a5b5-4a984297f3c3-712" transform="matrix(1,0,0,1,-136.087,-234.734)">
                <path d="M555.222,613.73C553.439,612.488 551.059,612.488 549.276,613.73L547.14,631.558L553.558,631.558L554.509,625.858L556.648,617.301L555.222,613.73Z" style="fill:rgb(237,111,121);fill-rule:nonzero;"/>
            </g>
        </g>
        <g transform="matrix(1,0,0,1,336.087,234.734)">
            <g id="afa107ec-0e1f-4b07-9537-fe3a9a5f8e8b-713" transform="matrix(1,0,0,1,-136.087,-234.734)">
                <path d="M561.652,641.265L550.133,637.504L544.642,641.861L550.476,650.779L547.425,654.779L547.338,654.679C546.959,654.248 538.067,644.086 538.093,641.204C538.158,639.248 538.489,637.311 539.074,635.444L541.964,631.344L546.064,630.138L559.636,632.038L559.658,632.038L565.142,635.376C566.241,636.085 566.96,637.257 567.094,638.559C567.329,640.678 567.803,657.651 567.808,657.822L567.808,657.933L561.894,657.933L561.652,641.265Z" style="fill:rgb(47,46,65);fill-rule:nonzero;"/>
            </g>
        </g>
        <g transform="matrix(1,0,0,1,336.087,234.734)">
            <g id="b735e730-6705-4934-808d-0e6dc1de6035-714" transform="matrix(1,0,0,1,-136.087,-234.734)">
                <path d="M554.35,637.005C552.35,636.115 549.791,632.641 549.37,632.055C548.546,632.503 542.539,635.714 540.845,634.889C540.11,635.261 539.55,635.908 539.287,636.689L539.237,636.94L539.092,636.729C539.065,636.69 536.456,632.81 539.831,630.399C541.595,629.272 542.985,627.645 543.823,625.726L542.153,616.9L542.197,616.859C542.334,616.732 545.585,613.741 548.551,613.385L550.381,613.062L550.461,620.028L550.461,628.946C551.939,628.76 554.278,613.178 554.278,613.178L555.5,613.626C555.816,613.687 559.365,614.396 560.307,615.808L560.338,615.854L557.11,624.582L556.166,626.003L556.166,627.822L561.682,632.622L561.604,632.704C561.416,632.904 557.349,637.131 554.98,637.13C554.763,637.133 554.548,637.09 554.35,637.005Z" style="fill:rgb(63,61,86);fill-rule:nonzero;"/>
            </g>
        </g>
        <g transform="matrix(1,0,0,1,336.087,234.734)">
            <g id="ade73258-5ca4-4173-8b1c-41e04f44844d-715" transform="matrix(1,0,0,1,-136.087,-234.734)">
                <path d="M550.905,638.59C551.035,637.554 551.926,636.768 552.97,636.768C553.18,636.768 553.389,636.8 553.589,636.863L556.637,633.209L559.31,634.52L554.933,639.62C554.622,640.426 553.843,640.961 552.979,640.961C551.831,640.961 550.886,640.017 550.886,638.868C550.886,638.776 550.892,638.683 550.905,638.591L550.905,638.59Z" style="fill:rgb(160,97,106);fill-rule:nonzero;"/>
            </g>
        </g>
        <g transform="matrix(1,0,0,1,336.087,234.734)">
            <g id="fb6336a6-3b5c-4476-975a-6834746d9cfa-716" transform="matrix(1,0,0,1,-136.087,-234.734)">
                <path d="M553.058,635.492L557.84,629.037L556.656,622.637L558.578,615.431L558.626,615.41C559.149,615.182 559.735,615.142 560.284,615.296C560.574,615.415 560.8,615.65 560.908,615.944C561.384,617.133 562.531,629.244 562.579,629.782C562.481,630.93 562.238,632.061 561.855,633.148C561.378,634.101 557.031,638.91 556.847,639.115L556.771,639.199L553.058,635.492Z" style="fill:rgb(63,61,86);fill-rule:nonzero;"/>
            </g>
        </g>
        <g transform="matrix(1,0,0,1,336.087,234.734)">
            <g id="b93590be-0d48-4c9c-8edf-7b9cf6debf72-717" transform="matrix(1,0,0,1,-136.087,-234.734)">
                <path d="M556.811,604.598C555.041,606.824 552.011,606.416 549.58,605.598C549.722,607.38 549.237,609.156 548.211,610.62C548.524,609.357 547.204,609.106 546.433,608.636C546.133,608.26 546.383,607.7 546.261,607.236C544.877,605.614 543.961,604.39 545.737,602.486C546.777,601.094 548.025,599.357 550.006,599.722C551.574,597.893 554.142,598.369 555.895,599.648C556.684,600.231 557.401,600.904 558.031,601.655C557.83,602.642 557.454,603.585 556.922,604.441" style="fill:rgb(47,46,65);fill-rule:nonzero;"/>
            </g>
        </g>
        <g transform="matrix(1,0,0,1,336.087,234.734)">
            <g id="b24fdcc1-dbae-4f5c-89cb-c8a774e1760c-718" transform="matrix(1,0,0,1,-136.087,-234.734)">
                <path d="M552.746,640.144C552.616,639.108 551.725,638.322 550.681,638.322C550.471,638.322 550.262,638.354 550.061,638.417L547.013,634.763L544.341,636.074L548.718,641.174C549.029,641.98 549.808,642.515 550.672,642.515C551.82,642.515 552.765,641.571 552.765,640.422C552.765,640.33 552.759,640.237 552.746,640.145L552.746,640.144Z" style="fill:rgb(160,97,106);fill-rule:nonzero;"/>
            </g>
        </g>
        <g transform="matrix(1,0,0,1,336.087,234.734)">
            <g id="f543f9b6-75c6-481a-84a9-cd09bde9e30c-719" transform="matrix(1,0,0,1,-136.087,-234.734)">
                <path d="M546.836,639.489C546.563,639.289 540.152,634.465 539.436,633.033C538.72,631.601 538.896,627.349 538.906,627.156C539.394,624.09 540.086,621.061 540.978,618.088C541.366,617.072 542.346,616.397 543.433,616.397C543.753,616.397 544.07,616.455 544.369,616.569C544.395,616.579 544.422,616.59 544.447,616.601L544.521,616.631L543.448,629.149L549.301,636.913L546.917,639.548L546.836,639.489Z" style="fill:rgb(63,61,86);fill-rule:nonzero;"/>
            </g>
        </g>
        <g id="e743b151-a501-4802-bd45-1d20431e6e42-720" transform="matrix(1,0,0,1,200,5e-06)">
            <path d="M537.551,368.48L528.583,347.674L510.581,347.995L499.661,368.737L499.882,369.014L499.803,369.014L499.803,412.158L537.527,412.158L537.527,369.014L537.551,368.48Z" style="fill:rgb(242,242,242);fill-rule:nonzero;"/>
        </g>
        <g id="f115d1b6-9c1d-4192-bab1-4c1681c44a09-721" transform="matrix(1,0,0,1,200,5e-06)">
            <path d="M817.916,420.557L810.669,405.349L796.121,405.583L787.297,420.745L787.475,420.947L787.411,420.947L787.411,452.483L817.896,452.483L817.896,420.947L817.916,420.557Z" style="fill:rgb(242,242,242);fill-rule:nonzero;"/>
        </g>
        <g transform="matrix(1,0,0,1,336.087,234.734)">
            <rect x="120.268" y="103.854" width="211.472" height="2" style="fill:white;"/>
        </g>
        <g transform="matrix(1,0,0,1,336.087,234.734)">
            <rect x="99.268" y="124.854" width="211.472" height="2" style="fill:white;"/>
        </g>
        <g transform="matrix(1,0,0,1,336.087,234.734)">
            <rect x="690.184" y="128.645" width="34.47" height="2" style="fill:white;"/>
        </g>
        <g transform="matrix(1,0,0,1,336.087,234.734)">
            <rect x="690.184" y="149.645" width="34.47" height="2" style="fill:white;"/>
        </g>
        <g transform="matrix(1,0,0,1,336.087,234.734)">
            <rect x="407.134" y="64.645" width="41.83" height="2" style="fill:white;"/>
        </g>
        <g transform="matrix(1,0,0,1,336.087,234.734)">
            <rect x="407.134" y="85.645" width="41.83" height="2" style="fill:white;"/>
        </g>
    </g>
</svg>
